<svg width="53" height="23" viewBox="0 0 53 23" fill="none" xmlns="http://www.w3.org/2000/svg">
<mask id="mask0_1319_8350" style="mask-type:luminance" maskUnits="userSpaceOnUse" x="22" y="0" width="10" height="13">
<path d="M31.1036 0.078125H22.0117V12.5625H31.1036V0.078125Z" fill="white"/>
</mask>
<g mask="url(#mask0_1319_8350)">
<path d="M42.0329 5.68123C39.5232 6.23015 36.9071 6.08179 34.3677 6.50956C32.87 6.74712 31.429 7.25931 30.1173 8.02034C30.5451 6.94227 30.8591 5.7826 30.6786 4.64272C30.5745 4.02904 30.3296 3.44782 29.9633 2.94461C29.5969 2.4414 29.119 2.02988 28.5669 1.74232C28.0124 1.46553 27.4006 1.32289 26.7809 1.3259C26.1611 1.3289 25.5507 1.47747 24.9989 1.75963V1.78683C24.4221 1.8919 23.8612 2.07056 23.3299 2.31844C23.099 2.41657 22.8999 2.577 22.7549 2.7818C22.6099 2.9866 22.5248 3.22769 22.509 3.47811C22.4694 4.15808 23.0901 5.09027 23.0901 5.09027L23.1173 4.73421C23.1255 4.60232 23.1688 4.47502 23.2427 4.36547C23.3166 4.25593 23.4184 4.16811 23.5376 4.1111C23.777 3.99248 24.0358 3.91793 24.3017 3.89104C24.5213 3.87533 24.7421 3.89707 24.9544 3.95533L24.9322 4.91718C24.3948 6.16542 23.4403 7.18809 22.2321 7.81016C21.0163 7.16891 19.7043 6.72964 18.3476 6.50956C15.8131 6.08179 13.1995 6.23015 10.6824 5.68123C5.93494 4.65014 1.8452 0.941187 0.299805 -3.70984C0.380907 -2.19778 0.572637 -0.693692 0.873456 0.790357C0.947635 0.98075 1.03418 1.1934 1.14792 1.4456C1.63739 2.55386 2.27541 3.59034 3.04443 4.52651C3.83895 5.4856 4.75301 6.33901 5.76432 7.0659C6.18467 7.37004 6.5432 7.6173 6.80778 7.76565L7.21329 8.01292L6.75832 7.86456C6.46902 7.76318 6.06599 7.6173 5.57146 7.39971C4.41859 6.90323 3.33012 6.26892 2.32984 5.51061C2.6043 6.13372 2.90596 6.75682 3.23482 7.37003C3.31394 7.45905 3.39554 7.55054 3.50434 7.66181C4.13571 8.31842 4.83719 8.90381 5.59618 9.40749C6.37931 9.92445 7.21677 10.354 8.09354 10.6883C8.49771 10.8466 8.91047 10.982 9.32986 11.0938C8.88787 11.1084 8.44542 11.0985 8.00453 11.0641C7.13309 10.9956 6.27027 10.8432 5.42805 10.6092C6.12142 11.4464 6.88135 12.2262 7.7004 12.9409C7.76963 12.9656 7.83639 12.9953 7.9081 13.02C8.74327 13.2959 9.61508 13.4451 10.4945 13.4626C10.9074 13.474 11.3206 13.455 11.7308 13.4057C11.3483 13.581 10.9532 13.7273 10.5489 13.8434C10.1064 13.9761 9.65415 14.0736 9.19634 14.1352C9.90972 14.6514 10.6528 15.1253 11.4217 15.5545C11.8322 15.6595 12.2507 15.7307 12.6729 15.7671C13.0708 15.8008 13.4713 15.7909 13.8671 15.7374C14.2216 15.6874 14.5692 15.5969 14.9032 15.4679C15.2426 15.3394 15.5596 15.1583 15.8428 14.9313C15.8428 14.9313 15.7859 15.0253 15.6672 15.1786C15.5018 15.4018 15.3128 15.6066 15.1035 15.7894C14.801 16.0533 14.4691 16.2815 14.1144 16.4693C13.9809 16.541 13.8325 16.6028 13.6842 16.6671C13.8845 16.7537 14.0699 16.8476 14.2751 16.9317C15.0972 17.2682 15.9479 17.5297 16.817 17.7131L17.1607 17.6537C17.8218 17.5646 18.4383 17.2706 18.9237 16.813C19.1489 16.5885 19.3094 16.3075 19.3885 15.9995C19.3962 16.09 19.3962 16.181 19.3885 16.2715C19.3577 16.5181 19.2841 16.7574 19.1709 16.9787C19.0935 17.1292 19.0024 17.2724 18.899 17.4065C18.783 17.5569 18.6539 17.6967 18.5132 17.8243C18.4709 17.8617 18.4263 17.8963 18.3797 17.9282C20.4493 18.0765 22.5362 17.6315 24.3659 16.2295C24.1162 17.0133 23.189 18.0172 20.3726 19.0087C24.2992 19.3673 26.3614 24.1839 26.3614 24.1839C26.3614 24.1839 28.4211 19.3648 32.3476 19.0062C29.5337 18.0172 28.5941 17.0009 28.3642 16.227C30.1939 17.629 32.2808 18.0741 34.3504 17.9257C34.3084 17.8911 34.259 17.8614 34.2169 17.8219C34.0762 17.6942 33.9472 17.5544 33.8312 17.404C33.7285 17.2699 33.6382 17.1267 33.5617 16.9762C33.4491 16.7545 33.3747 16.5155 33.3416 16.269C33.3345 16.1785 33.3345 16.0876 33.3416 15.9971C33.4188 16.3058 33.5797 16.5873 33.8065 16.8105C34.2885 17.2695 34.9027 17.5653 35.562 17.6562L35.9082 17.7155C36.7771 17.5315 37.6278 17.27 38.4501 16.9342C38.6528 16.8501 38.8407 16.7562 39.0386 16.6696C38.8927 16.6053 38.7418 16.5435 38.6108 16.4718C38.2558 16.2843 37.9239 16.0561 37.6217 15.7918C37.4137 15.6085 37.2256 15.4038 37.0604 15.1811C36.9418 15.0228 36.8824 14.9338 36.8824 14.9338C37.1656 15.1608 37.4826 15.3419 37.822 15.4704C38.156 15.5994 38.5036 15.6898 38.858 15.7399C39.2539 15.7932 39.6543 15.8032 40.0523 15.7696C40.4745 15.7331 40.893 15.662 41.3035 15.5569C42.0724 15.1278 42.8155 14.6539 43.5288 14.1376C43.0676 14.0757 42.6121 13.9773 42.1664 13.8434C41.7612 13.7275 41.3653 13.5812 40.982 13.4057C41.3922 13.455 41.8054 13.474 42.2184 13.4626C43.0977 13.4451 43.9696 13.2959 44.8047 13.02L45.0149 12.9409C45.8333 12.2255 46.5932 11.4458 47.2873 10.6092C46.4415 10.8412 45.5754 10.9911 44.7009 11.0567C44.2608 11.0911 43.8192 11.101 43.378 11.0864C43.7975 10.9748 44.2103 10.8394 44.6143 10.6809C45.4913 10.3471 46.3289 9.91751 47.1117 9.40007C47.8712 8.89702 48.5727 8.31157 49.2035 7.65439C49.3123 7.54312 49.3939 7.45163 49.4731 7.36262C49.8019 6.75682 50.1061 6.14114 50.3731 5.51061C49.3732 6.26944 48.2846 6.9038 47.1315 7.39971C46.6369 7.60493 46.2413 7.76318 45.952 7.85962L45.4995 8.01786L45.9051 7.7706C46.1647 7.61483 46.5257 7.37003 46.946 7.07085C47.9573 6.34395 48.8714 5.49055 49.6659 4.53145C50.4369 3.59129 51.0751 2.54963 51.5624 1.43571C51.6786 1.18845 51.7627 0.970859 51.8369 0.780467C52.141 -0.703337 52.3361 -2.20743 52.4204 -3.71973C50.8775 0.941187 46.7853 4.65014 42.0329 5.68123ZM25.983 2.60527C25.983 2.60527 25.7605 2.30361 25.6468 2.12558C25.8537 1.98168 26.0955 1.89591 26.3468 1.87721C26.5982 1.8585 26.85 1.90756 27.0759 2.01926L25.983 2.60527Z" fill="black"/>
</g>
<path d="M33.7589 6.38045C33.1973 6.53112 32.6909 6.84011 32.3 7.2706L27.7256 12.6115L26.1184 14.2929L24.5112 12.6857L19.9294 7.32005C19.5386 6.88957 19.0322 6.58057 18.4706 6.4299C17.5062 6.15791 0.445074 4.69906 0 4.4518C0 4.4518 0.890148 6.92443 1.58249 7.86403C2.29955 8.85308 3.63477 9.52069 5.24198 9.79268C5.24198 9.79268 8.65422 10.0647 10.1872 9.44652C10.212 9.44652 10.2367 9.47124 10.212 9.49597C8.42735 10.8979 6.16105 11.5378 3.90676 11.2763C4.80802 12.3829 5.83721 13.3789 6.97283 14.2434C7.34372 14.5154 8.06078 14.3423 8.97566 13.922L11.7203 12.562C11.7203 12.562 12.3384 12.1417 11.7945 12.8588C11.2505 13.5758 9.93999 14.5154 9.24765 14.9605C9.09929 15.0594 8.90148 15.455 9.59382 15.6776C10.2862 15.9001 11.2258 16.271 11.8686 16.4688C12.3 16.5288 12.7386 16.4323 13.105 16.1968C13.105 16.1968 14.2918 15.1583 14.7369 14.8616C15.0583 14.6143 14.8853 15.0594 14.5144 15.5045L13.6489 16.6666C13.6489 16.6666 13.4511 16.8891 13.9209 16.8891C13.9209 16.8891 16.715 17.087 17.3579 16.9386C17.6051 16.8891 17.7782 16.4441 17.9513 16.0979C18.0008 15.999 18.1244 16.0484 18.0997 16.5677C18.0997 16.5677 18.0255 17.0375 18.1739 17.1117C19.336 17.6804 20.0778 17.1859 21.5119 17.1859C21.6355 17.1859 22.1548 17.3342 21.4377 17.532C21.0474 17.6378 20.6731 17.7958 20.325 18.0018C20.325 18.0018 23.8362 18.2244 26.111 22.9224C28.3858 18.2244 31.897 18.0018 31.897 18.0018C31.5489 17.7958 31.1746 17.6378 30.7843 17.532C30.0672 17.3342 30.5865 17.1859 30.7101 17.1859C32.1442 17.1859 32.886 17.6804 34.0482 17.1117C34.1965 17.0375 34.1223 16.5677 34.1223 16.5677C34.0976 16.0484 34.2212 15.999 34.2707 16.0979C34.4438 16.4441 34.6169 16.8891 34.8641 16.9386C35.507 17.087 38.3011 16.8891 38.3011 16.8891C38.7709 16.8891 38.5731 16.6666 38.5731 16.6666L37.7151 15.455C37.3442 15.0099 37.1711 14.5649 37.4925 14.8121C37.9376 15.1088 39.1245 16.1474 39.1245 16.1474C39.4908 16.3828 39.9294 16.4793 40.3608 16.4193C41.0037 16.2215 41.9433 15.8506 42.6356 15.6281C43.3279 15.4056 43.1301 15.0099 42.9818 14.911C42.2894 14.466 40.979 13.5016 40.435 12.8093C39.891 12.117 40.5092 12.5126 40.5092 12.5126L43.2538 13.8725C44.1686 14.2929 44.8857 14.466 45.2566 14.194C46.3922 13.3295 47.4214 12.3335 48.3227 11.2268C46.0684 11.4883 43.8021 10.8484 42.0175 9.44652C41.9927 9.42179 42.0175 9.39706 42.0422 9.39706C43.5752 10.0152 46.9874 9.74323 46.9874 9.74323C48.5947 9.47124 49.9299 8.80363 50.6469 7.81458C51.3393 6.87498 52.2294 4.40234 52.2294 4.40234C51.7769 4.64961 34.7158 6.10846 33.7589 6.38045Z" fill="black"/>
<path d="M30.792 9.24925L32.5723 6.85079C31.9788 6.82607 26.6132 9.02671 26.1187 9.22452C25.6489 9.02671 20.2586 6.82607 19.6651 6.85079L21.4454 9.24925C20.8337 9.44734 20.2862 9.80579 19.8599 10.2873C19.4337 10.7688 19.1443 11.3557 19.0219 11.987C18.8994 12.6182 18.9484 13.2708 19.1638 13.8767C19.3791 14.4826 19.7529 15.0197 20.2463 15.4322C20.7396 15.8446 21.3345 16.1173 21.969 16.2218C22.6035 16.3263 23.2544 16.2589 23.854 16.0265C24.4535 15.7941 24.9799 15.4052 25.3782 14.9004C25.7765 14.3956 26.0322 13.7932 26.1187 13.156C26.2448 14.0592 26.7088 14.8809 27.4169 15.4555C28.1251 16.03 29.0248 16.3146 29.9346 16.2519C30.8444 16.1891 31.6965 15.7837 32.3191 15.1174C32.9417 14.4511 33.2884 13.5734 33.2893 12.6615C33.2777 11.9041 33.0312 11.1691 32.5838 10.5578C32.1365 9.9466 31.5104 9.48935 30.792 9.24925Z" fill="#E50202"/>
<path d="M22.7309 14.8621C23.9872 14.8621 25.0057 13.8437 25.0057 12.5873C25.0057 11.331 23.9872 10.3125 22.7309 10.3125C21.4745 10.3125 20.4561 11.331 20.4561 12.5873C20.4561 13.8437 21.4745 14.8621 22.7309 14.8621Z" fill="white"/>
<path d="M23.2109 13.8506C24.2351 13.8506 25.0654 13.0203 25.0654 11.9961C25.0654 10.9719 24.2351 10.1416 23.2109 10.1416C22.1867 10.1416 21.3564 10.9719 21.3564 11.9961C21.3564 13.0203 22.1867 13.8506 23.2109 13.8506Z" fill="black"/>
<path d="M29.0854 14.8377C30.3417 14.8377 31.3602 13.8193 31.3602 12.5629C31.3602 11.3066 30.3417 10.2881 29.0854 10.2881C27.829 10.2881 26.8105 11.3066 26.8105 12.5629C26.8105 13.8193 27.829 14.8377 29.0854 14.8377Z" fill="white"/>
<path d="M28.8359 13.8506C29.8601 13.8506 30.6904 13.0203 30.6904 11.9961C30.6904 10.9719 29.8601 10.1416 28.8359 10.1416C27.8117 10.1416 26.9814 10.9719 26.9814 11.9961C26.9814 13.0203 27.8117 13.8506 28.8359 13.8506Z" fill="black"/>
<path d="M26.1106 8.73443L19.1328 6.64258L26.1106 14.3424L33.0884 6.64258L26.1106 8.73443Z" fill="#E50202"/>
<path d="M27.8244 13.5512C27.8244 14.973 26.1158 16.1252 26.1158 16.1252C26.1158 16.1252 24.4072 14.973 24.4072 13.5512C24.4072 12.1295 25.1713 11.6992 26.1158 11.6992C27.0604 11.6992 27.8244 12.1393 27.8244 13.5512Z" fill="white"/>
</svg>
